<?xml version="1.0" encoding="utf-8"?>
<!-- Generator: Adobe Illustrator 19.0.0, SVG Export Plug-In . SVG Version: 6.00 Build 0)  -->
<svg version="1.1" id="Layer_1" xmlns="http://www.w3.org/2000/svg" xmlns:xlink="http://www.w3.org/1999/xlink" x="0px" y="0px"
	 viewBox="0 0 141.8 167.1" style="enable-background:new 0 0 141.8 167.1;" xml:space="preserve">
<style type="text/css">
	.st0{fill:#2B3990;}
</style>
<g id="XMLID_87_">
	<path id="XMLID_2_" class="st0" d="M136.8,48.5c0,12.9-6.2,25.3-21.7,32.2c19.6,6,26.7,26.7,26.7,37.2c0,37.2-27.9,49.2-62.6,49.2
		c-26.5,0-52.8,0-79.3,0V0c26.3,0,52.8,0,79.3,0C112.2,0,136.8,14.8,136.8,48.5z M31,67.1h48.2c19.8,0,26.3-8.4,26.3-17.9
		c0-7.6-6.2-20.5-26.3-20.5H31V67.1z M31,137.8h48.2c12.9,0,31.3-4.3,31.3-20.1c0-15-18.4-22.9-31.3-22.9H31V137.8z"/>
</g>
</svg>
