<?xml version="1.0" encoding="utf-8"?>
<!-- Generator: Adobe Illustrator 19.0.0, SVG Export Plug-In . SVG Version: 6.00 Build 0)  -->
<svg version="1.1" id="Layer_1" xmlns="http://www.w3.org/2000/svg" xmlns:xlink="http://www.w3.org/1999/xlink" x="0px" y="0px"
	 viewBox="0 0 349.4 349.4" style="enable-background:new 0 0 349.4 349.4;" xml:space="preserve">
<style type="text/css">
	.st0{opacity:0.43;fill:#DE4A9B;}
	.st1{opacity:0.43;fill:#F2F9F7;}
	.st2{opacity:0.43;fill:#B397C7;}
	.st3{opacity:0.43;fill:#F9C5D7;}
	.st4{opacity:0.43;fill:#E5D6E9;}
	.st5{opacity:0.43;fill:#EE3C6E;}
</style>
<path id="XMLID_143_" class="st0" d="M18.8,233.5c-3.6-0.9-6.7-2.9-8.9-6.7c-0.2-0.8-0.5-1.5-0.9-2.1c0.4,0.7,0.7,1.4,0.9,2.1
	C12,230.6,15.2,232.6,18.8,233.5z"/>
<path id="XMLID_142_" class="st0" d="M315.8,168.1c0.1-0.4,0.1-0.7,0.2-1.1C316,167.3,315.9,167.7,315.8,168.1L315.8,168.1z"/>
<path id="XMLID_141_" class="st0" d="M29.5,204.3c4.5-2.1,8.5-5.9,10-10c1.5-2.3,2.1-4.8,2.1-7.4c-0.1,2.5-0.6,5-2.1,7.4
	C38,198.4,34,202.2,29.5,204.3z"/>
<path id="XMLID_140_" class="st0" d="M249,144.4c0.1,0.1,0.3,0.1,0.4,0.2C249.3,144.5,249.1,144.4,249,144.4z"/>
<path id="XMLID_139_" class="st0" d="M231.5,290.9c-0.1,0.2-0.3,0.3-0.4,0.5l0,0c0,0,0,0,0,0C231.2,291.2,231.4,291,231.5,290.9z"/>
<path id="XMLID_138_" class="st0" d="M244.9,17.5c-0.6,0.2-1.3,0.5-1.9,0.8C243.6,18,244.3,17.8,244.9,17.5z"/>
<path id="XMLID_137_" class="st0" d="M85.2,155c0.5,0.1,1.1,0.3,1.6,0.4c2,2.1,3.1,4.5,3.7,7.1c-0.6-2.6-1.7-5-3.7-7.1
	C86.3,155.3,85.8,155.1,85.2,155z"/>
<path id="XMLID_136_" class="st0" d="M245.8,17.2c3.2-0.9,6.4-0.5,9.9,1.7c0.6,1.3,1.5,2.5,2,3.9c-0.6-1.4-1.4-2.6-2-3.9
	C252.3,16.7,249,16.3,245.8,17.2z"/>
<path id="XMLID_135_" class="st1" d="M0.7,26.2c7.9,0.1,15.8,0,23.5-2.5c7.7-2.5,13.1-7.5,15.8-15.3c1-2.8,1.9-5.6,2.9-8.4H0v26.2
	C0.2,26.2,0.5,26.2,0.7,26.2z"/>
<path id="XMLID_134_" class="st1" d="M147.9,9.4c-4.4,2.1-9.2,2.5-13.9,2.8c-7.1,0.4-14.2-0.3-21.2,0.4c-5.5,0.5-10.3,3-14.7,6.1
	c-1.3,0.9-1.9,2.1-1.4,3.7c0.7,2.2-0.2,3.8-1.7,5.3c-4.8,4.8-10.8,7.2-17.1,9c-10.5,3-21.3,4.6-31.8,7.3
	c-10.3,2.6-19.7,6.8-27.3,14.4c-2.1,2.1-4.5,3.9-7,5.6C7.9,66.5,4,67.6,0,67.9v12.9c0.8,0.1,1.6,0.1,2.5,0.2
	c7.8,0.4,15.6,0.9,23.1,3.3c2.3-5.5,6.6-8.1,12.5-8c3.6,0.1,7.2,0.4,10.8,0.8c4.6,0.5,8.9-0.1,13.2-1.9c2.2-0.9,4.5-1.7,6.9-1.9
	c4.7-0.4,7.8,1.9,8.4,6.6c0.2,1.6,0.2,3.3,0.1,4.9c-0.2,3.4-1.5,5.9-5.3,6.8c-5.5,1.3-9,4.9-10.6,10.3c-0.4,1.2-0.8,2.4-1.3,3.7
	c-1.2,3.5-3.6,5.9-6.8,7.9c-5.3,3.2-11.1,4.3-17,5.3c-3.6,0.6-7.1,1.2-10.5,2.5c-4,1.5-5.7,4.3-5.2,8.6c0.2,1.3,0.5,2.5,0.6,3.8
	c0.2,2.4-0.5,3.6-2.8,4.2c-5,1.4-10,1.1-14.8-0.8c-1.3-0.5-2.6-1-3.8-1.5v27.4c0.4,1.3,0.4,2.7,0,4.2v1.8c4.3-0.4,7.6-2.6,10.3-5.9
	c3.1-3.7,6.1-7.5,10.2-10.2c2.9-1.9,6-2.4,9.3-1.3c1.8,0.6,3.1,1.6,3.2,3.5c0.2,2.4,2,4.1,2.1,6.5c1.7,7.1,5,13.7,6.2,20.8
	c0.3,1.6,0.4,3.1,0.4,4.6c-0.1,2.5-0.6,5-2.1,7.4c-1.5,4.1-5.5,7.9-10,10c-2.7,1.3-5.6,1.9-8.2,1.7c-0.5,0-1-0.3-1.5-0.4
	c-0.9,0.1-1.7-0.1-2.5-0.4c-5.9-1.9-11.5-4.4-17.3-6.5V218c3.8,0.5,6.8,2.3,8.4,6c0.2,0.2,0.3,0.4,0.5,0.6c0.4,0.7,0.7,1.4,0.9,2.1
	c2.2,3.9,5.3,5.8,8.9,6.7c2.2,0.6,4.5,0.7,6.9,0.8c4.3,0,8.5-0.5,12.7-1.4c1.5-0.3,2.7-0.8,3.4-2.3c0.4-0.8,1-1.5,1.6-2.1
	c3.8-3.7,6.5-8.2,8.8-12.9c2.5-5.1,7.3-7.8,12-10.4c4.8-2.6,9.8-4.8,14.4-7.6c7.5-4.6,11.8-11,12.4-19.9c0.2-3.5,0.4-6.9,0.2-10.4
	c-0.1-1.6-0.3-3.3-0.7-4.8c-0.6-2.6-1.7-5-3.7-7.1c-0.5-0.1-1.1-0.3-1.6-0.4c-0.2-0.1-0.5-0.1-0.7-0.2c-1,0.1-2,0.1-3,0.1
	c-0.6,0.1-1.2,0.2-1.8,0.4c-2,0.8-3.6,2-4.5,3.9c-1.2,2.5-2.2,5.1-3.4,7.6c-1.5,3.2-3.7,5.4-7.5,5.2c-3.9-0.3-6.5-2.4-7.8-6.1
	c-0.9-2.4-1.2-4.9-1.7-7.3c-0.2-1.3,0.7-2.2,1-3.2c0.8-2.8,0.6-5.7,0.6-8.5c0.1-7.5,3-10.8,10.5-11.7c2.7-0.3,5.4-0.4,8.2-0.1
	c7.8,0.7,15.2-0.7,22.3-3.7c0.9-0.4,1.7-1,2.7-0.8c2.1-1.9,4.7-2.9,7.1-4.3c8.6-5.1,13.1-12.8,14.1-22.6c0.3-3-0.9-5.9-1.3-8.8
	c-0.3-1.9-0.7-3.9,0.5-5.7c0.5-1.9,2-3,3.5-4.1c6.4-4.7,13.7-6.8,21.4-8c8.1-1.3,16.3-2.4,24.1-5.2c0.1,0,0.2,0,0.6,0.1
	c-0.6,1.3-1.3,2.4-2.2,3.4c-1.8,2.1-3.8,3.9-6,5.5c-7.5,5.5-11.2,13.3-13.8,21.8c-0.2,0.5-0.3,1-0.4,1.6c-0.1,1.3-0.3,2.6-0.3,3.8
	c0,3.8,2.5,5.5,5.7,6.4c4.9,0.2,9.8-0.3,14.5-1.5c5.4-1.4,9.8-4.1,13.5-8.3c2.3-2.6,4.6-5.2,7.3-7.5c3.1-2.6,6.7-4.2,10.7-3.8
	c11.2,1.1,18.9-4.5,25.4-12.8c0.4-0.5,0.9-1,1.3-1.5c1.8-3.1,3.5-6.3,5.3-9.4c0.6-1.1,1.2-1.4,2,0c4.8,8.8,11.2,16.6,17.7,24.2
	c7.7,9.1,15.9,17.7,24.4,26.1c0.5,0.5,0.9,1,1.4,1.5c5.6,5.4,11.1,10.8,16.7,16.2c0.5,0.5,1.1,1,1.7,1.5c8.1,7.3,17.3,9.1,27.7,5.8
	c6.1-2,12-4.4,18.2-6.1c0,0,0,0,0,0c3.7-0.9,6.7-0.5,9.1,0.9v-25.2c-2.3-0.9-4.4-2.1-6.3-3.6c-3.5-2.9-3.4-5.6,0.2-8.4
	c1.9-1.4,4-2.4,6.2-3.3V85c-6.6,0.2-13.1,1.7-19.7,4.3c-7.7,3-14.5,7.7-21.8,11.6c-3.2,1.7-6.5,3.4-9.9,4.8
	c-3.4,1.4-5.3,0.2-5.4-3.5c-0.1-3.9,0.9-7.6,1.9-11.2c1.4-5.1,3.2-10.1,5-15.1c0.7-2.1,1.2-4.2,1.7-6.3c-0.2-1.7,0.4-3.3,0.1-5
	c-0.3-1.9-1-3.5-2.2-4.8c-2.2,0.3-3.8,1.7-5.3,3.1c-1.3,1.1-2.6,2.4-3.9,3.5c-3.2,2.7-7,4.2-11.2,4.4c-2.5,0.1-4.8-0.5-6.9-2.1
	c-6.5,2-11.2-0.9-14.9-5.9c-1.9-2.5-3.5-5.1-5.4-7.7c-0.8-1.1-0.4-1.7,0.3-2.6c6.7-8.3,8.8-17.7,6.5-28.1c-0.1-0.5-0.3-1-0.5-1.4
	c-0.6-1.4-1.4-2.6-2-3.9c-3.4-2.3-6.7-2.6-9.9-1.7c-0.3,0.1-0.6,0.2-1,0.3c-0.6,0.2-1.3,0.5-1.9,0.8c-0.9,0.5-1.9,1-2.8,1.7
	c-3,2.4-4.3,5.8-5.7,9.2c-1.5,3.7-3.2,7.3-7.1,9c-3.2,1.4-6.6,2-10.1,2.1c-4.5,0.2-8.9,0.6-13.4,0.1c-2.1,1-4.2,0-6.2-0.2
	c-11.3-0.9-22.1-4.4-33-7.5c-1.1-0.3-1.4-1-1.4-1.9c-0.3-3.5,0.5-6.6,2.9-9.3c0.7-0.8,1.4-1.5,2.2-2.1c6-5.4,6.9-13.3,3-19.4h-17
	C154.2,3.9,152,7.4,147.9,9.4z"/>
<path id="XMLID_133_" class="st1" d="M315.8,168.1C315.8,168.1,315.8,168.1,315.8,168.1L315.8,168.1c-3.5-1.4-6.9-2.8-10.4-4.2
	c-7.1-2.8-14.3-4.8-21.9-5.8c-1.4-0.2-1.8,0.2-1.2,1.5c0.5,1.1,0.9,2.3,1.4,3.4c3.1,6.3,8.1,10.6,13.6,14.7
	c6,4.4,12.5,8.3,18.1,13.3c7.6,6.9,11.5,15.6,12.1,25.7c0.5,8.8-4.3,13.7-13.1,13.9c-2.9,0.1-5.8-0.2-8.7-0.7
	c-10.2-1.7-20.2-4.6-30.4-6.3c-1.7,2.5-2.9,5.3-5,7.6c-4.1,4.6-8.9,8.3-14.3,11.2c-4.9,2.7-10.1,4.9-15.4,6.9
	c-0.2,2.9-1.2,5.7-2.9,8c-4.9,6.4-10.6,12.1-17.6,16.2c-3.6,2.1-7.4,2.4-11.4,1c-2.9-1-5.5-2.3-8-4c-12.1-7.9-25.2-13.5-39.1-17
	c-0.3,0.2-0.7,0.4-1,0.7c-5.7,5.6-12.2,9.7-19.9,11.8c-2,0.5-4.2,0.8-5.9,2.1c8.6,1,13.6,6.3,14.3,15.1c0.4,5.8-0.5,11.5-2,17.2
	c1.5,0.2,3,0.2,4.4,0.6c2.4,0.6,2.9,2,1.7,4.1c-0.9,1.5-2.2,2.8-3.5,4c-2.5,2.3-5.2,4.2-7.8,6.2c-0.4,0.3-0.8,0.5-1.1,0.9
	c-2.3,2-2.1,3,0.7,4c2.4,0.8,4.8,1.5,7.2,2.3c1.3,0.4,2.6,0.8,3.8,1.5c1.8,0.9,3.9,1.6,3.6,4.3c-0.4,3.2-2.1,5.2-4.9,5.8
	c-1.3,0.3-2.7,0.3-4.1,0.1c-1.7-0.2-3.4-0.4-5.1-0.4c-2.6,0-3.7,1.2-3.6,3.8c0.1,2.8,1,5.3,2,7.9c0.5,1.3,0.8,2.6,1,3.9h10.4
	c-1.5-3.8-1.1-5.6,2.9-6.5c5.1-1.1,10.1-0.8,15.2-0.6c7.7,0.4,15.4,1.4,23,0.1c6-1,11.2-3.5,11.2-12.4c0-1.2,0.4-2,1.6-2.3
	c0.5-6.4,1.2-12.8,2.6-19.1c2.4-10.8,11.1-17.3,22.6-17.3l0,0c0.1-0.2,0.3-0.3,0.4-0.5c1.1-4.2,4.1-7,7.3-9.6
	c9-7.4,19.5-11.5,30.9-13.5c2.7-0.5,5.4-0.3,8.1,0.2c5.2,1.1,8.6,4.5,9.3,9.8c0.8,5.7-0.6,10.8-4.3,15.2c0.1,1.4,1.1,0.7,1.7,0.7
	c9.1-0.1,17.8-1.8,26.3-5.1c7.9-3.1,15.5-7.1,23-11c5.1-2.7,10.4-4.9,15.7-7.2V189c-6.4-5.7-13.5-10.5-21.3-14.6
	C324.1,172.2,319.9,170.2,315.8,168.1z"/>
<path id="XMLID_132_" class="st1" d="M325.2,345.1c3.9-2,7.8-3.9,11.3-6.4c5.6-6.1,5.5-13.2,3.7-20.5c-1-4-4.3-5-7.6-2.6
	c-1.2,0.8-1.7,2.1-2.3,3.3c-0.6,1.3-1.1,2.6-1.8,3.9c-0.9,1.7-2.3,2.4-4.2,2.3c-2.8-0.2-4.4-2.1-5.3-5.9c-0.4-2.1-0.8-4.1-1.3-6.2
	c-0.7-2.7-3.7-4.8-6.3-4.7c-2.5,0.1-4.1,1.7-4.8,5c-0.9,4,0.4,7.7,1.7,11.3c0.7,2.1,1.6,4.2,1.7,6.5c0,0,0,0,0,0
	c0.1,0.2,0.2,0.3,0.3,0.5c0.4,2.6,0.2,5-1.1,7.3c-3,5.8-8.7,8.2-14.9,6.1c-4.4-1.5-8.7-3.3-13-4.7c-2.8-0.9-5.7-1.5-8.6-0.9
	c-3.8,0.8-6.1,4.5-5.7,9.4c0,0.3,0.1,0.6,0.1,0.8h51.8C320.8,347.6,322.9,346.3,325.2,345.1z"/>
<path id="XMLID_131_" class="st1" d="M160.3,175.1c2.3-4.6,5.6-8.1,9.8-11c5.7-3.8,11.9-6.3,18.5-8c14.9-3.9,30.1-7.1,44.6-12.3
	c2.5-7,3.4-14,0.9-21.2c-1.1-3.3-3.4-5.3-6.9-6c-4.5-0.9-11.2,2.3-13.6,6.6c-1.4,2.4-2.5,5-3.6,7.6c-2.3,5.7-6.7,8.2-12.6,9
	c-7.7,0.9-15.5,1-23.2,0.4c-6.2-0.4-12.3-1.8-18.3-3.3c-2.9-0.8-5.7-1.7-8.6-2.4c-6.2-1.6-12.3-4.1-18.7-5
	c-6.1-0.9-11.3,0.6-15.1,5.9c-3.1,4.4-4.9,9.4-4.9,14.7c0,6.8,2.1,10.4,9.5,11.8c3.5,0.7,7,0.9,10.5,0.9c4.9,0,9.8-0.1,14.6,0.8
	c4,0.8,4.7,1.9,3.7,5.9c-1,3.9-3.5,6.7-6.5,9.1c-4.3,3.5-8.6,6.9-11.3,11.9c-2.8,5.3-5.6,10.6-5.6,16.8c0,4.3,2.1,6.4,6.4,6.9
	c2.1,0.2,4.2,0.2,6.3-0.1c6.4-0.9,12.6-2.2,17.7-6.5c4.1-3.5,7.2-8.2,11.5-11.5c0.2-0.1,0.2-0.5,0.2-0.8c-1.2-3.1-3.4-5.7-5.1-8.6
	C158.5,182.9,158.3,179.1,160.3,175.1z"/>
<path id="XMLID_130_" class="st2" d="M24.2,23.7c-7.6,2.5-15.5,2.6-23.5,2.5c-0.2,0-0.5,0-0.7,0v41.7c4-0.3,7.9-1.4,11.6-3.8
	c2.5-1.7,4.9-3.5,7-5.6c7.6-7.6,17-11.8,27.3-14.4c10.6-2.7,21.4-4.3,31.8-7.3c6.4-1.8,12.4-4.2,17.1-9c1.5-1.5,2.4-3.1,1.7-5.3
	c-0.5-1.6,0-2.8,1.4-3.7c4.5-3.1,9.2-5.6,14.7-6.1c7.1-0.7,14.2,0,21.2-0.4c4.8-0.3,9.5-0.7,13.9-2.8c4.1-2,6.4-5.5,6.5-9.4H42.9
	c-1.1,2.8-2,5.6-2.9,8.4C37.3,16.2,31.9,21.2,24.2,23.7z"/>
<path id="XMLID_129_" class="st2" d="M23.9,330.1c0-0.1,0-0.2,0-0.2c0-0.6-0.1-1.2,0.6-1.6c-0.4-2.7-0.4-5.4-0.8-8
	c-0.1-0.9-0.3-1.8-0.5-2.7c-0.8-3.4-2.4-6.3-4.9-8.9c-4.7-4.8-8.8-10.1-10.3-16.8c-1.2-5.1,2.5-9.5,7.7-9.6c0.6,0,1.2,0,1.8-0.1
	c2.9-0.1,4.9-1.4,5.8-4.2c1.2-4.1,3.7-7.4,6.5-10.5c1.8-2,4-2.6,6.7-2.2c7.3,1.3,13.8,4.5,20,8.4c3.6,2.2,7.1,4.2,11,5.8
	c4.5,1.8,9,2.6,13.7,1c6.2-2.2,8.9-6.6,7.1-12.9c-2.5-8.9-7.9-15.8-15.6-20.7c-5.3-3.4-11.4-3-17.3-2.3c-4.3,0.5-8.6,1.3-12.9,2
	c-4.8,0.8-9.5,0.6-14.1-1c-6.2-2.1-12.2-4.7-18.8-5.4c-3.4,0.2-6.6,0.7-9.6,1.4v108h15C20.4,344.2,22.8,337.4,23.9,330.1z"/>
<path id="XMLID_128_" class="st2" d="M7.3,179.9c5.9-2.4,11.9-4.5,17.2-8c4-2.6,7.4-5.7,9.8-9.9c0.2-0.3,0.5-0.5,0.8-0.5
	c-0.1-2.4-1.9-4.1-2.1-6.5c-0.1-1.9-1.5-2.9-3.2-3.5c-3.3-1.1-6.4-0.6-9.3,1.3c-4.1,2.7-7.1,6.5-10.2,10.2c-2.7,3.3-6,5.5-10.3,5.9
	v14C2.4,181.8,4.9,180.9,7.3,179.9z"/>
<path id="XMLID_127_" class="st2" d="M8.4,224c-1.7-3.8-4.7-5.5-8.4-6v17.8C4.4,233.5,7.6,229.8,8.4,224z"/>
<path id="XMLID_126_" class="st2" d="M18.7,137.8c2.3-0.7,3.1-1.8,2.8-4.2c-0.1-1.3-0.4-2.6-0.6-3.8c-0.5-4.3,1.2-7.1,5.2-8.6
	c3.4-1.3,6.9-2,10.5-2.5c5.9-1,11.8-2.1,17-5.3c3.2-1.9,5.6-4.3,6.8-7.9c0.4-1.2,0.9-2.4,1.3-3.7c1.6-5.4,5.1-9,10.6-10.3
	c3.8-0.9,5-3.4,5.3-6.8c0.1-1.6,0.1-3.3-0.1-4.9c-0.6-4.7-3.7-7-8.4-6.6c-2.4,0.2-4.7,1-6.9,1.9c-4.2,1.8-8.6,2.4-13.2,1.9
	c-3.6-0.4-7.2-0.7-10.8-0.8c-5.9-0.1-10.2,2.5-12.5,8c-1.1,2.6-2.2,5.3-2.3,8.2c-0.2,4.6-3.2,7.4-6.5,9.8c-4.6,3.4-10,4.7-15.5,5.8
	c-0.4,0.1-0.9,0.2-1.3,0.2v27.2c1.3,0.5,2.6,1,3.8,1.5C8.7,138.8,13.6,139.2,18.7,137.8z"/>
<path id="XMLID_125_" class="st2" d="M343.1,110.8c1.9,1.6,4.1,2.7,6.3,3.6V99.1c-2.2,0.9-4.3,1.9-6.2,3.3
	C339.6,105.1,339.6,107.9,343.1,110.8z"/>
<path id="XMLID_124_" class="st2" d="M312,58.9c9.3,0,15.9-7.5,14.8-16.8c-0.8-7.2-8.1-10.8-14.3-7c-1.4,0.9-2.6,2-3.8,3.1
	c-2.5,2.2-4.7,4.8-7.6,6.4c-3.3,1.9-3.9,1.6-4.6-2c-0.9-4.8-3.6-6.2-7.9-4.1c-0.3,0.1-0.6,0.3-0.9,0.5c-7.6,5-13.6,11.5-18.1,19.4
	c-2.3,4.1-1.5,7.1,2,10.1c2,1.5,4.4,2.2,6.9,2.1c4.2-0.2,7.9-1.7,11.2-4.4c1.4-1.1,2.6-2.4,3.9-3.5c1.6-1.3,3.2-2.8,5.3-3.1
	c0.5-0.2,1-0.4,1.5-0.5C304.4,58.4,308.2,58.9,312,58.9z"/>
<path id="XMLID_123_" class="st2" d="M180.1,231.6c1.2-4.8,0.6-9.6,0.2-14.4c-0.4-5.2-0.2-10.2,2.4-14.8c1.7-3.1,4.8-4.4,8.1-3.4
	c1.7,0.5,3.4,1,5,1.7c5.6,2.2,11.2,4,17.4,1.8c5.7-2,8-4.6,8.2-10.6c0-1.5,0.2-3,0.4-4.5c1.1-6.9,3.6-11,12.1-10.8
	c4.2,0.1,8.4,0.6,12.6,0.5c3.1-0.1,5.8-0.8,8.1-2.8c2.2-1.9,4.2-3.9,6.5-5.6c4-2.9,4.3-6.4,2.6-10.1c-2.8-6.3-7-11.5-13.8-13.8
	c-0.1,0-0.3-0.1-0.4-0.1c-0.2-0.1-0.3-0.1-0.4-0.2c-0.3-0.1-0.5-0.3-0.7-0.6c-5-0.6-10.1-1-15.1,0.1c-14.6,5.2-29.7,8.4-44.6,12.3
	c-6.5,1.7-12.8,4.2-18.5,8c-4.2,2.8-7.6,6.4-9.8,11c-2,4-1.8,7.8,0.4,11.7c1.7,2.9,3.8,5.5,5.1,8.6c2.3,6.1,0.8,11.5-3.3,16.3
	c-4.4,5.1-10,8.7-15.6,12.3c-4.1,2.6-8.1,5.3-11,9.3c-2.4,3.4-1.9,7,1.3,9.6c0.9,0.8,2,1.5,3.1,1.9c8.3,3.3,16.8,4.4,25.5,2.2
	C173.4,244.5,178.1,239.3,180.1,231.6z"/>
<path id="XMLID_122_" class="st2" d="M104.6,313.1c-4.2,3-7.5,6.7-8.5,12c-0.6,3,0.2,5.5,2.6,7.4c1.6,1.3,3.2,2.5,5,3.6
	c4,2.5,8.4,4.5,12.1,7.6c2.5,2.1,3.2,4,2,5.7h23.6c-0.2-1.3-0.5-2.6-1-3.9c-1-2.5-1.9-5.1-2-7.9c-0.1-2.6,1-3.8,3.6-3.8
	c1.7,0,3.4,0.2,5.1,0.4c1.4,0.1,2.7,0.1,4.1-0.1c2.8-0.6,4.5-2.6,4.9-5.8c0.4-2.7-1.8-3.4-3.6-4.3c-1.2-0.6-2.5-1-3.8-1.5
	c-2.4-0.8-4.8-1.5-7.2-2.3c-2.8-1-3-1.9-0.7-4c0.4-0.3,0.8-0.6,1.1-0.9c2.7-2,5.4-4,7.8-6.2c1.3-1.2,2.6-2.4,3.5-4
	c1.2-2.1,0.7-3.5-1.7-4.1c-1.4-0.4-3-0.4-4.4-0.6c-8.6,0.3-16.9,2-25,4.5C115.8,306.9,109.9,309.3,104.6,313.1z"/>
<path id="XMLID_121_" class="st2" d="M237.6,307.7c4.9,4.3,10.5,3.2,13.5-2.6c1-1.8,1.7-3.7,2.5-5.6c1.5-3.5,4.1-5,7.8-4.3
	c1.9,0.3,3.9,0.7,5.8,1.3c5.8,1.8,11.3,1.9,15.5-3.4c3.7-4.4,5.1-9.5,4.3-15.2c-0.7-5.3-4.1-8.7-9.3-9.8c-2.7-0.6-5.4-0.7-8.1-0.2
	c-11.4,2-21.9,6-30.9,13.5c-3.1,2.6-6.2,5.4-7.3,9.6c-0.1,0.2-0.3,0.3-0.4,0.5c0,0,0,0,0,0C229.6,298.3,232.8,303.4,237.6,307.7z"/>
<path id="XMLID_120_" class="st3" d="M265.9,12.5c-2.5,2.3-5.4,4.1-8.6,5.4c-0.6,0.3-1.3,0.3-1.7,1c0.6,1.3,1.5,2.6,2,3.9
	c0.2,0.5,0.4,0.9,0.5,1.4c2.3,10.4,0.2,19.8-6.5,28.1c-0.7,0.9-1.1,1.5-0.3,2.6c1.9,2.5,3.5,5.2,5.4,7.7c3.7,5,8.4,7.9,14.9,5.9
	c-3.5-3-4.3-6.1-2-10.1c4.5-7.8,10.5-14.4,18.1-19.4c0.3-0.2,0.6-0.4,0.9-0.5c4.3-2.1,7.1-0.7,7.9,4.1c0.6,3.6,1.3,3.9,4.6,2
	c2.9-1.7,5.1-4.2,7.6-6.4c1.2-1.1,2.4-2.2,3.8-3.1c6.2-3.7,13.4-0.2,14.3,7c1.1,9.2-5.6,16.7-14.8,16.8c-3.8,0-7.6-0.5-11.4,0.3
	c-0.5,0.1-1,0.3-1.5,0.5c1.3,1.4,1.9,3,2.2,4.8c0.3,1.7-0.2,3.3-0.1,5c8.2-3.7,16.1-2.1,23.8,1.5c5.5,2.5,10.4,5.9,16,8.2
	c2.9,1.2,5.7,1.9,8.4,2.3V13.9c-4.7-2.2-9.6-4.2-14.5-6c-4.3-1.6-8.5-3.3-11.3-7.3c-0.2-0.2-0.3-0.4-0.4-0.7h-50.3
	C271.6,4.6,269.7,9,265.9,12.5z"/>
<path id="XMLID_119_" class="st3" d="M340.3,138.8c-0.6,0.9-1.5,1.5-2.5,2c-0.3,0.2-0.6,0.3-0.9,0.5c-9.9,5.7-16.6,14-20.6,24.6
	c-0.1,0.3-0.2,0.7-0.3,1.1c-0.1,0.4-0.1,0.7-0.2,1.1c4.1,2.1,8.3,4.1,12.3,6.3c7.7,4.1,14.9,8.9,21.3,14.6v-49.3
	C347,138.3,344,137.8,340.3,138.8z"/>
<path id="XMLID_118_" class="st3" d="M308.8,297.1c-5.8,3-11.3,6.3-15.9,11c-1.5,1.6-2.9,3.3-3.7,5.3c-1.4,3.6-0.7,7.2,2.6,9.7
	c5.4,4.2,11.7,6.6,18.4,7.9c-0.1-2.3-1-4.4-1.7-6.5c-1.3-3.7-2.6-7.3-1.7-11.3c0.7-3.3,2.3-4.9,4.8-5c2.6-0.1,5.5,2.1,6.3,4.7
	c0.6,2,0.9,4.1,1.3,6.2c0.8,3.8,2.5,5.7,5.3,5.9c1.9,0.1,3.3-0.6,4.2-2.3c0.6-1.3,1.2-2.6,1.8-3.9c0.6-1.2,1.1-2.5,2.3-3.3
	c3.3-2.3,6.6-1.4,7.6,2.6c1.7,7.3,1.9,14.5-3.7,20.5c2.8,1.7,5.8,3,8.2,5.2c1.9,1.7,3,3.5,3.4,5.5h1.3v-61.8
	c-5.2,0.6-10.5,0.9-15.8,1.4C324.7,289.8,316.6,293,308.8,297.1z"/>
<path id="XMLID_117_" class="st3" d="M340.3,138.8C340.3,138.8,340.3,138.8,340.3,138.8C340.3,138.8,340.3,138.8,340.3,138.8
	c3.7-0.9,6.7-0.5,9.1,0.9v0C347,138.3,344,137.8,340.3,138.8z"/>
<path id="XMLID_116_" class="st3" d="M328.2,174.4c-4.1-2.2-8.2-4.2-12.3-6.3c0,0,0,0,0,0C319.9,170.2,324.1,172.2,328.2,174.4z"/>
<path id="XMLID_115_" class="st3" d="M9.8,226.8c-1.1,4.4-0.4,8.8-0.2,13.2c6.6,0.7,12.6,3.2,18.8,5.4c4.6,1.6,9.3,1.9,14.1,1
	c4.3-0.7,8.6-1.6,12.9-2c5.9-0.7,12-1.1,17.3,2.3c7.7,4.9,13.1,11.9,15.6,20.7c1.8,6.3-0.9,10.7-7.1,12.9c-4.7,1.7-9.3,0.8-13.7-1
	c-3.9-1.5-7.5-3.6-11-5.8c-6.3-3.8-12.7-7.1-20-8.4c-2.6-0.5-4.8,0.2-6.7,2.2c-2.8,3.1-5.3,6.4-6.5,10.5c-0.9,2.9-2.9,4.2-5.8,4.2
	c-0.6,0-1.2,0-1.8,0.1c-5.3,0.2-8.9,4.5-7.7,9.6c1.5,6.7,5.7,12.1,10.3,16.8c2.6,2.6,4.1,5.5,4.9,8.9c0.2,0.9,0.4,1.8,0.5,2.7
	c0.4,2.7,0.5,5.4,0.8,8c0,0,0,0,0,0c0.8,0.1,1.2,0.8,1.8,1.3c5.4,5.1,10,11,14.8,16.7c0.7,0.9,1.5,1.7,2.2,2.5
	c0.2,0.2,0.4,0.4,0.6,0.7h31c2.7-0.2,5.3-0.3,8,0h34.7c1.2-1.7,0.5-3.5-2-5.7c-3.7-3.1-8-5.1-12.1-7.6c-1.7-1.1-3.4-2.3-5-3.6
	c-2.4-2-3.2-4.4-2.6-7.4c1-5.3,4.3-9,8.5-12c5.3-3.9,11.3-6.3,17.5-8.2c-0.3-2.3-1.6-4.1-2.7-6.1c-2.9-5.2-4.3-10.8-5.8-16.5
	c-0.6-2.1,0.6-3.8,1.9-5.4c1.3-1.6,3-2.8,4.8-3.7c4.6-2.3,9.3-4.4,14.5-5.2c1.7-1.3,3.9-1.5,5.9-2.1c7.8-2,14.3-6.2,19.9-11.8
	c0.3-0.3,0.6-0.5,1-0.7c0.6-1.7,2.1-2.8,3-4.3c0.5-0.7,1.2-1.4,1.2-2.3c-8.8,2.2-17.3,1.1-25.5-2.2c-1.1-0.4-2.2-1.2-3.1-1.9
	c-3.2-2.6-3.7-6.2-1.3-9.6c2.9-4,6.9-6.7,11-9.3c5.6-3.6,11.2-7.2,15.6-12.3c4.1-4.8,5.6-10.1,3.3-16.3c-0.1,0.3-0.1,0.6-0.2,0.8
	c-4.3,3.4-7.4,8-11.5,11.5c-5.1,4.4-11.3,5.7-17.7,6.5c-2.1,0.3-4.2,0.3-6.3,0.1c-4.3-0.5-6.4-2.6-6.4-6.9c0-6.2,2.9-11.5,5.6-16.8
	c2.6-5.1,7-8.4,11.3-11.9c3-2.4,5.5-5.3,6.5-9.1c1-4.1,0.4-5.1-3.7-5.9c-4.8-1-9.7-0.9-14.6-0.8c-3.5,0-7.1-0.2-10.5-0.9
	c-7.4-1.4-9.5-5-9.5-11.8c0-5.3,1.8-10.3,4.9-14.7c3.8-5.3,9-6.8,15.1-5.9c6.4,0.9,12.4,3.4,18.7,5c2.9,0.7,5.8,1.6,8.6,2.4
	c-0.1-4.8,0.2-9.7-0.9-14.4c-0.6-2.7-1.1-5.5-2.4-8c-3.2-1-5.6-2.7-5.7-6.4c0-1.3,0.2-2.5,0.3-3.8c-2.1-2.3-3.9-4.8-6.3-6.8
	c-3.5-2.8-7.4-4.8-11.7-6c-3-0.9-6-1.7-9.1-2.2c-1.1,1.8-0.8,3.8-0.5,5.7c0.5,2.9,1.6,5.8,1.3,8.8c-1,9.8-5.4,17.5-14.1,22.6
	c-2.4,1.4-5,2.4-7.1,4.3c1.8,3.4,3.6,6.7,5.3,10.1c1,2,1.8,4.1,2.2,6.3c0.8,4.2-0.9,7-5.1,8.1c-4,1.1-8.1,0.8-12.1,0.4
	c-1.2-0.1-2.3-0.3-3.4-0.1c2,2.1,3.1,4.5,3.7,7.1c0.4,1.6,0.6,3.2,0.7,4.8c0.2,3.5,0.1,6.9-0.2,10.4c-0.6,8.9-4.9,15.3-12.4,19.9
	c-4.7,2.8-9.7,5-14.4,7.6c-4.7,2.6-9.5,5.3-12,10.4c-2.3,4.7-4.9,9.2-8.8,12.9c-0.6,0.6-1.2,1.3-1.6,2.1c-0.8,1.4-2,2-3.4,2.3
	c-4.2,0.8-8.4,1.4-12.7,1.4c-2.4,0-4.8-0.2-6.9-0.8C15.2,232.6,12,230.6,9.8,226.8z"/>
<path id="XMLID_114_" class="st3" d="M24.5,328.2C24.5,328.2,24.5,328.2,24.5,328.2c-0.4-2.7-0.4-5.4-0.8-8
	C24.1,322.8,24.2,325.5,24.5,328.2C24.5,328.2,24.5,328.2,24.5,328.2z"/>
<path id="XMLID_113_" class="st3" d="M222.4,84.9c-2.5,1.7-4.4,4.1-5.6,6.8c-1.3,2.9,0,5.7,2.9,6.9c3.2,1.2,6.3,2.6,9.5,3.8
	c1,0.4,1.1,1,1.2,1.9c0.3,6.5-2.3,10.1-9,12.3c-3.1,1-6.3,1.5-9.6,1.6c-8.4,0.4-16.7-0.4-25.1-0.1c-3.8,0.1-7.4,1.1-10.5,3.4
	c-4.1,3.1-5.3,8.3-3.5,14.1c0.5,1.6,1.1,3.1,1.7,4.6c7.7,0.7,15.5,0.6,23.2-0.4c5.8-0.7,10.3-3.3,12.6-9c1-2.6,2.2-5.1,3.6-7.6
	c2.4-4.2,9.1-7.4,13.6-6.6c3.5,0.7,5.7,2.7,6.9,6c2.5,7.2,1.7,14.2-0.9,21.2c5-1.1,10.1-0.7,15.1-0.1c0,0,0,0,0,0
	c0.6-1,1.6-1.5,2.5-2.1c4.5-3,8.8-6.1,13.1-9.3c4.4-3.3,8.3-7.2,12.3-11c-0.5-0.5-0.9-1-1.4-1.5c-8.5-8.4-16.7-17-24.4-26.1
	c-6.5-7.6-12.8-15.4-17.7-24.2c-0.8-1.4-1.4-1-2,0c-1.8,3.1-3.5,6.3-5.3,9.4C225.5,81.6,224.6,83.4,222.4,84.9z"/>
<path id="XMLID_112_" class="st3" d="M227.7,16.6c-11.2-3.8-19.2,3.1-22,10.7c-1.6,4.3-1.9,8.7-1.8,13.2c4.5,0.5,8.9,0.1,13.4-0.1
	c3.5-0.2,6.9-0.7,10.1-2.1c3.9-1.8,5.6-5.3,7.1-9c1.4-3.4,2.8-6.8,5.7-9.2c-0.8-0.1-1.6-0.1-2.4-0.4C234.4,18.7,231,17.7,227.7,16.6
	z"/>
<path id="XMLID_111_" class="st3" d="M69.5,153.3c-4.7-0.3-9.3,0.8-13.8,2.1c-0.4,1.1-1.3,2-1,3.2c0.5,2.5,0.8,4.9,1.7,7.3
	c1.3,3.7,3.9,5.8,7.8,6.1c3.8,0.3,6-2,7.5-5.2c1.2-2.5,2.2-5.1,3.4-7.6c0.9-1.9,2.5-3.1,4.5-3.9c0.6-0.2,1.2-0.3,1.8-0.4
	c1-0.1,2,0,3-0.1C79.5,153.9,74.5,153.6,69.5,153.3z"/>
<path id="XMLID_110_" class="st3" d="M81.4,154.9c1-0.1,2,0,3-0.1c0,0,0,0,0,0C83.5,154.9,82.5,154.8,81.4,154.9z"/>
<path id="XMLID_109_" class="st3" d="M39.6,194.3c-8.5,0.3-14.9,4.6-19.8,11.2c0.5,0.2,1,0.4,1.5,0.4c2.6,0.2,5.5-0.4,8.2-1.7
	C34,202.2,38,198.4,39.6,194.3z"/>
<path id="XMLID_108_" class="st3" d="M276.6,212.7c-0.1-1.7-0.8-2.8-2.3-3.5c-2.1-1-4.4-1.4-6.7-1.5c-6.6-0.2-13.2,0-19.8,0.7
	c-6.8,0.8-13.5,1.9-19.5,5.4c-8.9,5.1-15.8,12-18.9,22.1c-1.8,5.7-0.3,10.3,4.3,13.3c2.9,1.9,6.2,2.8,9.6,3.1
	c6,0.5,11.8-0.8,17.4-2.9c5.3-2,10.4-4.2,15.4-6.9c5.4-3,10.2-6.6,14.3-11.2c2-2.3,3.3-5.1,5-7.6C276.3,220,276.8,216.4,276.6,212.7
	z"/>
<path id="XMLID_107_" class="st3" d="M247.5,343.5c-1.2-2.3-3-4-5.4-5.1c-8.3-4-17-7.3-26-9.6c-3.4-0.9-6.8-1.9-10.4-1
	c-1.2,0.3-1.6,1.1-1.6,2.3c0,8.8-5.2,11.3-11.2,12.4c-7.6,1.3-15.3,0.3-23-0.1c-5.1-0.3-10.2-0.5-15.2,0.6c-4,0.9-4.4,2.7-2.9,6.5
	H246C248.5,347.9,248.9,346.1,247.5,343.5z"/>
<path id="XMLID_106_" class="st4" d="M334.9,7.9c4.9,1.8,9.8,3.8,14.5,6V0h-26.2c0.1,0.2,0.3,0.4,0.4,0.7
	C326.4,4.6,330.6,6.3,334.9,7.9z"/>
<path id="XMLID_105_" class="st4" d="M325,71c-7.8-3.5-15.6-5.2-23.8-1.5c-0.6,2.1-1,4.2-1.7,6.3c-1.8,5-3.6,10-5,15.1
	c-1,3.7-2,7.4-1.9,11.2c0.1,3.7,1.9,4.9,5.4,3.5c3.4-1.4,6.7-3,9.9-4.8c7.3-3.9,14.1-8.6,21.8-11.6c6.5-2.6,13.1-4.1,19.7-4.3v-3.5
	c-2.7-0.4-5.5-1.1-8.4-2.3C335.4,77,330.5,73.5,325,71z"/>
<path id="XMLID_104_" class="st4" d="M168.3,19.4c-0.8,0.7-1.5,1.4-2.2,2.1c-2.4,2.7-3.1,5.8-2.9,9.3c0.1,0.9,0.4,1.6,1.4,1.9
	c10.8,3.1,21.6,6.6,33,7.5c2,0.2,4.1,1.2,6.2,0.2c-0.1-4.5,0.2-8.9,1.8-13.2c2.8-7.6,10.8-14.5,22-10.7c3.3,1.1,6.7,2.1,10.1,3.1
	c0.8,0.2,1.6,0.2,2.4,0.4c0.9-0.6,1.9-1.2,2.8-1.7c0.6-0.3,1.3-0.6,1.9-0.8c0.3-0.1,0.6-0.2,1-0.3c3.2-0.9,6.4-0.5,9.9,1.7
	c0.3-0.7,1.1-0.8,1.7-1c3.1-1.4,6-3.1,8.6-5.4c3.8-3.5,5.7-7.8,6.9-12.5H171.3C175.2,6.1,174.3,14,168.3,19.4z"/>
<path id="XMLID_103_" class="st4" d="M0,235.8v5.6c3-0.8,6.2-1.3,9.6-1.4c-0.2-4.4-1-8.8,0.2-13.2c-0.2-0.8-0.5-1.5-0.9-2.1
	c-0.1-0.2-0.3-0.4-0.5-0.6C7.6,229.8,4.4,233.5,0,235.8z"/>
<path id="XMLID_102_" class="st4" d="M41.1,346.2c-4.8-5.7-9.4-11.6-14.8-16.7c-0.5-0.5-0.9-1.2-1.8-1.3c-0.6,0.4-0.5,1-0.6,1.6
	c0,0.1,0,0.2,0,0.2c-1.2,7.4-3.5,14.2-9,19.3h29c-0.2-0.2-0.4-0.4-0.6-0.7C42.6,347.9,41.8,347.1,41.1,346.2z"/>
<path id="XMLID_101_" class="st4" d="M250.8,141.7c-0.9,0.6-1.9,1.1-2.5,2.1c0.2,0.3,0.4,0.5,0.7,0.6c0.1,0.1,0.3,0.1,0.4,0.2
	c0.1,0,0.3,0.1,0.4,0.1c6.9,2.3,11.1,7.5,13.8,13.8c1.6,3.7,1.3,7.2-2.6,10.1c-2.3,1.7-4.3,3.7-6.5,5.6c-2.3,2-5,2.8-8.1,2.8
	c-4.2,0.1-8.4-0.4-12.6-0.5c-8.5-0.2-11,3.9-12.1,10.8c-0.2,1.5-0.4,3-0.4,4.5c-0.1,6-2.4,8.6-8.2,10.6c-6.2,2.2-11.8,0.4-17.4-1.8
	c-1.6-0.6-3.3-1.2-5-1.7c-3.4-1-6.4,0.4-8.1,3.4c-2.6,4.7-2.9,9.6-2.4,14.8c0.4,4.8,1,9.6-0.2,14.4c-2,7.7-6.7,12.9-14.3,15.3
	c0,1-0.7,1.6-1.2,2.3c-0.9,1.5-2.4,2.6-3,4.3c14,3.6,27.1,9.1,39.1,17c2.5,1.6,5.2,3,8,4c4,1.4,7.8,1.1,11.4-1
	c7-4.2,12.7-9.8,17.6-16.2c1.8-2.3,2.7-5,2.9-8c-5.6,2.1-11.3,3.4-17.4,2.9c-3.5-0.3-6.7-1.2-9.6-3.1c-4.6-3-6-7.6-4.3-13.3
	c3.1-10.1,10-17,18.9-22.1c6-3.5,12.7-4.6,19.5-5.4c6.6-0.7,13.2-0.9,19.8-0.7c2.3,0.1,4.6,0.5,6.7,1.5c1.5,0.7,2.2,1.8,2.3,3.5
	c0.2,3.7-0.4,7.3-1.3,10.9c10.2,1.7,20.2,4.6,30.4,6.3c2.9,0.5,5.8,0.7,8.7,0.7c8.8-0.2,13.6-5.1,13.1-13.9
	c-0.6-10.1-4.5-18.8-12.1-25.7c-5.6-5-12-8.9-18.1-13.3c-5.5-4-10.6-8.4-13.6-14.7c-0.5-1.1-0.9-2.3-1.4-3.4
	c-0.6-1.3-0.2-1.6,1.2-1.5c7.5,1,14.8,3,21.9,5.8c3.5,1.4,6.9,2.8,10.4,4.2c0.1-0.4,0.1-0.7,0.2-1.1c0.1-0.4,0.2-0.7,0.3-1.1
	c4-10.6,10.7-18.9,20.6-24.6c0.3-0.2,0.6-0.3,0.9-0.5c0.9-0.5,1.9-1.1,2.5-2c-6.2,1.6-12.1,4.1-18.2,6.1
	c-10.4,3.4-19.6,1.6-27.7-5.8c-0.6-0.5-1.1-1-1.7-1.5c-5.6-5.4-11.1-10.8-16.7-16.2c-4,3.8-7.8,7.7-12.3,11
	C259.6,135.6,255.3,138.8,250.8,141.7z"/>
<path id="XMLID_100_" class="st5" d="M249,144.4c-0.3-0.1-0.5-0.3-0.7-0.6c0,0,0,0,0,0C248.5,144.1,248.7,144.2,249,144.4z"/>
<path id="XMLID_99_" class="st5" d="M337.9,140.8c0.9-0.5,1.9-1.1,2.5-2c0,0,0,0,0,0C339.7,139.7,338.8,140.2,337.9,140.8z"/>
<path id="XMLID_98_" class="st5" d="M250.8,141.7c-0.9,0.6-1.9,1.1-2.5,2.1c0,0,0,0,0,0c0,0,0,0,0,0
	C248.9,142.8,249.9,142.3,250.8,141.7z"/>
<path id="XMLID_97_" class="st4" d="M156,136.9c6,1.5,12.1,2.9,18.3,3.3c-0.6-1.5-1.2-3-1.7-4.6c-1.8-5.8-0.6-11,3.5-14.1
	c3.1-2.3,6.7-3.3,10.5-3.4c8.4-0.3,16.7,0.5,25.1,0.1c3.3-0.2,6.5-0.6,9.6-1.6c6.7-2.2,9.3-5.8,9-12.3c0-0.9-0.2-1.5-1.2-1.9
	c-3.2-1.2-6.3-2.5-9.5-3.8c-2.9-1.1-4.2-4-2.9-6.9c1.2-2.8,3.1-5.1,5.6-6.8c2.1-1.5,3.1-3.3,3-5.8c-0.4,0.5-0.9,1-1.3,1.5
	c-6.5,8.2-14.1,13.9-25.4,12.8c-4-0.4-7.6,1.2-10.7,3.8c-2.7,2.3-4.9,4.9-7.3,7.5c-3.7,4.1-8.2,6.9-13.5,8.3
	c-4.8,1.2-9.6,1.8-14.5,1.5c1.3,2.5,1.9,5.2,2.4,8C156.2,127.2,155.9,132,156,136.9z"/>
<path id="XMLID_96_" class="st4" d="M1.3,108.1c5.5-1.1,10.9-2.4,15.5-5.8c3.3-2.5,6.2-5.2,6.5-9.8c0.1-2.9,1.2-5.6,2.3-8.2
	c-7.5-2.3-15.3-2.9-23.1-3.3c-0.8,0-1.6-0.1-2.5-0.2v27.5C0.4,108.2,0.9,108.1,1.3,108.1z"/>
<path id="XMLID_95_" class="st4" d="M34.3,161.9c-2.4,4.2-5.8,7.3-9.8,9.9c-5.3,3.6-11.3,5.6-17.2,8c-2.4,1-4.9,1.9-7.3,3v15.8
	c5.8,2.1,11.4,4.6,17.3,6.5c0.9,0.3,1.7,0.5,2.5,0.4c4.9-6.7,11.2-10.9,19.8-11.2c1.5-2.3,2.1-4.8,2.1-7.4c0-1.5-0.1-3.1-0.4-4.6
	c-1.3-7.2-4.5-13.8-6.2-20.8C34.7,161.5,34.4,161.6,34.3,161.9z"/>
<path id="XMLID_94_" class="st4" d="M90.3,155.5c4.1,0.3,8.1,0.6,12.1-0.4c4.2-1.1,5.9-4,5.1-8.1c-0.4-2.2-1.1-4.3-2.2-6.3
	c-1.8-3.4-3.6-6.7-5.3-10.1c-1-0.2-1.8,0.4-2.7,0.8c-7.1,3.1-14.5,4.4-22.3,3.7c-2.7-0.2-5.4-0.2-8.2,0.1
	c-7.5,0.9-10.4,4.2-10.5,11.7c0,2.9,0.2,5.7-0.6,8.5c4.5-1.3,9.1-2.3,13.8-2.1c5,0.3,10,0.6,14.9,1.5c0,0,0,0,0,0
	c0.2,0.1,0.5,0.1,0.7,0.2c0.5,0.1,1.1,0.3,1.6,0.4C88,155.2,89.1,155.4,90.3,155.5z"/>
<path id="XMLID_93_" class="st5" d="M84.5,154.8C84.5,154.8,84.5,154.8,84.5,154.8c0.2,0.1,0.5,0.1,0.7,0.2
	C85,154.9,84.7,154.9,84.5,154.8C84.5,154.8,84.5,154.8,84.5,154.8z"/>
<path id="XMLID_92_" class="st4" d="M141,97.3c2.4,2,4.2,4.6,6.3,6.8c0.1-0.5,0.3-1.1,0.4-1.6c2.6-8.5,6.4-16.4,13.8-21.8
	c2.2-1.6,4.2-3.5,6-5.5c0.9-1,1.6-2.1,2.2-3.4c-0.3-0.1-0.5-0.2-0.6-0.1c-7.8,2.8-16,3.8-24.1,5.2c-7.6,1.3-15,3.3-21.4,8
	c-1.5,1.1-2.9,2.2-3.5,4.1c3.1,0.5,6.1,1.4,9.1,2.2C133.7,92.5,137.6,94.5,141,97.3z"/>
<path id="XMLID_91_" class="st4" d="M319.1,349.4h29.1c-0.4-2-1.5-3.9-3.4-5.5c-2.5-2.2-5.5-3.5-8.2-5.2c-3.5,2.6-7.4,4.5-11.3,6.4
	C322.9,346.3,320.8,347.6,319.1,349.4z"/>
<path id="XMLID_90_" class="st4" d="M310.7,288.7c-8.5,3.3-17.2,5-26.3,5.1c-0.6,0-1.6,0.6-1.7-0.7c-4.3,5.3-9.7,5.2-15.5,3.4
	c-1.9-0.6-3.8-1-5.8-1.3c-3.7-0.6-6.4,0.9-7.8,4.3c-0.8,1.9-1.6,3.8-2.5,5.6c-3.1,5.8-8.7,6.9-13.5,2.6c-4.8-4.3-8-9.5-6.5-16.4
	c-11.5,0-20.2,6.6-22.6,17.3c-1.4,6.3-2.1,12.7-2.6,19.1c3.6-0.9,7,0.1,10.4,1c9,2.3,17.6,5.5,26,9.6c2.3,1.1,4.1,2.8,5.4,5.1
	c1.4,2.5,0.9,4.4-1.5,5.9h21.2c-0.1-0.3-0.1-0.5-0.1-0.8c-0.4-4.9,1.8-8.6,5.7-9.4c3-0.6,5.9,0,8.6,0.9c4.4,1.5,8.7,3.2,13,4.7
	c6.2,2.1,11.9-0.2,14.9-6.1c1.2-2.3,1.5-4.8,1.1-7.3c-0.1-0.2-0.2-0.3-0.3-0.5c0,0,0,0,0,0c-6.7-1.3-13-3.7-18.4-7.9
	c-3.2-2.5-4-6.1-2.6-9.7c0.8-2.1,2.2-3.8,3.7-5.3c4.6-4.7,10.1-8,15.9-11c7.8-4.1,15.9-7.3,24.9-8.1c5.3-0.5,10.5-0.8,15.8-1.4
	v-17.1c-5.3,2.3-10.6,4.6-15.7,7.2C326.2,281.6,318.7,285.6,310.7,288.7z"/>
<path id="XMLID_89_" class="st4" d="M115.5,277c-1.3,1.5-2.5,3.2-1.9,5.4c1.5,5.6,2.9,11.3,5.8,16.5c1.1,1.9,2.4,3.8,2.7,6.1
	c8.2-2.5,16.5-4.3,25-4.5c1.5-5.6,2.4-11.3,2-17.2c-0.6-8.8-5.7-14.1-14.3-15.1c-5.2,0.8-9.9,2.9-14.5,5.2
	C118.4,274.2,116.8,275.4,115.5,277z"/>
</svg>
